<svg width="101" height="21" viewBox="0 0 101 21" xmlns="http://www.w3.org/2000/svg"><title>Caelum Logo</title><path d="M45.45 12.41v2.946c-.617.55-1.223.974-1.815 1.273-.592.3-1.294.447-2.11.447-1.418 0-2.124-.683-2.124-2.048 0-.865.342-1.468 1.026-1.818.35-.182.682-.336.999-.452.6-.233 1.94-.348 4.024-.348zm10.593-5.067c2.001 0 2.999 1.368 2.999 3.997h-6.503c.183-2.629 1.354-3.997 3.504-3.997zM84.798 5.65c-.716 0-1.052.179-1.052.545v12.154c0 .366.335.551 1.052.551.716 0 1.052-.185 1.052-.551V9.194l.375-.427c.233-.299.603-.589 1.111-.872.509-.283 1.09-.427 1.75-.427.658 0 1.189.217 1.597.65.408.433.638 1.023.638 1.772v8.459c0 .366.335.551 1.052.551.716 0 1.052-.185 1.052-.551-.025-3.042.033-6.128 0-9.155 1.017-1.148 1.99-1.726 3.025-1.726.783 0 1.38.217 1.788.65.409.433.658 1.023.658 1.772v8.459c0 .366.286.551 1.006.551s1.098-.185 1.098-.551V9.693c0-.798-.17-1.482-.42-2.048-.25-.565-.59-.99-1.007-1.273-.75-.482-1.594-.722-2.544-.722-1.484 0-2.812.687-3.979 2.068-.567-1.381-1.76-2.068-3.577-2.068-1.373 0-2.579.555-3.623 1.674V6.195c0-.366-.336-.545-1.052-.545zM71.33 5.63c-.716 0-1.052.186-1.052.552v8.662c0 1.265.57 2.252 1.296 2.967.725.715 1.78 1.076 3.156 1.076 1.307 0 2.47-.567 3.544-1.693v1.155c0 .365.354.551 1.052.551.698 0 1.052-.164 1.052-.492V6.182c0-.366-.322-.552-1.039-.552-.716 0-1.065.186-1.065.552v9.135c-.9 1.165-1.936 1.745-3.136 1.745-.818 0-1.446-.212-1.888-.636-.442-.425-.868-1.02-.868-1.785V6.18c0-.365-.335-.55-1.052-.55zm-15.366-.085c-1.818 0-3.219.578-4.202 1.726-.984 1.148-1.473 2.832-1.473 5.053 0 2.222.499 3.874 1.499 4.955 1 1.082 2.545 1.62 4.63 1.621 1.183 0 2.227-.185 3.136-.551.908-.366 1.36-.71 1.36-1.044 0-.166-.1-.421-.308-.754-.209-.333-.4-.499-.566-.499-.034 0-.21.083-.526.25-.95.532-1.99.8-3.123.8-1.234 0-2.159-.322-2.775-.971-.617-.649-.979-1.52-1.079-2.901h7.904c.584-.19.796-.551.829-1.168 0-4.343-1.772-6.517-5.307-6.517zm-13.066 0c-1.367 0-2.536.18-3.512.538-.975.358-1.466.714-1.466 1.064 0 .166.107.415.316.748.208.333.392.499.559.499.033 0 .228-.093.578-.276 1.017-.516 2.127-.775 3.328-.775 1.833 0 2.748.696 2.748 2.094v1.175a38.95 38.95 0 0 0-3.88.262 6.506 6.506 0 0 0-3.057 1.201c-.909.658-1.368 1.64-1.368 2.953 0 1.315.394 2.289 1.177 2.92.784.634 1.82.952 3.104.952 1.582 0 2.922-.562 4.024-1.686v1.135c0 .366.336.552 1.052.551.716-.001 1.052-.185 1.052-.551V9.463c0-1.231-.435-2.19-1.302-2.88-.867-.691-1.986-1.038-3.353-1.038zm-12.145 0c-1.584 0-2.924.444-4.024 1.326-.584.483-1.046 1.175-1.388 2.074-.342.898-.513 1.967-.513 3.215 0 2.363.509 4.08 1.526 5.145 1.016 1.065 2.562 1.595 4.629 1.595 1.05 0 1.965-.139 2.749-.413.783-.275 1.177-.56 1.177-.86 0-.2-.103-.463-.303-.788-.2-.324-.386-.485-.552-.485a.439.439 0 0 0-.112.04 1.92 1.92 0 0 1-.158.058 6.24 6.24 0 0 1-2.827.65c-1.401 0-2.4-.393-2.992-1.175-.592-.782-1.033-2.049-1.033-3.813 0-3.177 1.357-4.77 3.775-4.77.917 0 1.822.198 2.722.597.033.017.067.03.092.04l.099.039a.286.286 0 0 0 .085.026c.15 0 .321-.17.513-.512.192-.341.29-.624.29-.84 0-.3-.384-.56-1.151-.794-.767-.233-1.637-.355-2.604-.355zM17.11 2.1c1.237 0 1.828.675 1.828 1.91v12.98c0 1.235-.59 1.91-1.828 1.91H4.103c-1.237 0-1.999-.675-1.999-1.91C2.127 9.405 9.211 2.077 17.11 2.1zm-13.013 0l.526 1.365 1.466.079-1.137.925.374 1.411-1.23-.794-1.23.794.376-1.411-1.138-.925 1.467-.079.526-1.365zm60.5-2.1c-.715 0-1.051.185-1.051.551v14.904c0 1.281.328 2.176.986 2.684a3.58 3.58 0 0 0 2.242.761c1.217 0 1.822-.249 1.822-.748 0-.166-.051-.4-.151-.709-.1-.308-.225-.466-.375-.466-.034 0-.149.024-.349.066-.2.042-.44.059-.723.059-.9 0-1.348-.613-1.348-1.844V.55c0-.366-.336-.551-1.052-.551zM3.368 0A3.361 3.361 0 0 0 0 3.36v14.28A3.361 3.361 0 0 0 3.367 21h14.308a3.361 3.361 0 0 0 3.367-3.36V3.36A3.361 3.361 0 0 0 17.675 0H3.367z" fill-rule="evenodd"/></svg>