<svg xmlns="http://www.w3.org/2000/svg" viewBox="4.851 3.318 330.457 96.363" height="35"><path fill="#FFCD09" d="M21.854 20.564V82.434h57.795V65.08H39.114V38.082h40.535V20.564H39.532z"/><path fill="#F58220" d="M21.854 3.318L4.851 20.564v61.87l17.003 17.248h57.795V82.434H21.854V20.564h57.795V3.318z"/><g><path fill="none" d="M210.589 35.408a5.037 5.037 0 0 0-1.75-1.729c-.725-.433-1.6-.646-2.629-.646-3.778-.027-5.67 2.643-5.67 8.008 0 1.058.104 2.07.312 3.043.209.976.533 1.822.979 2.543a5.248 5.248 0 0 0 1.752 1.754c.724.443 1.599.666 2.627.666 3.781.029 5.672-2.641 5.672-8.006a14.73 14.73 0 0 0-.312-3.086c-.21-.976-.536-1.824-.981-2.547zM187.433 33.156c-1.916 0-3.418.633-4.504 1.896-1.084 1.266-1.625 3.288-1.625 6.067 0 1.142.09 2.197.271 3.172.18.974.479 1.808.896 2.5a4.641 4.641 0 0 0 1.646 1.648c.681.401 1.508.604 2.482.604 1.418 0 2.543-.366 3.377-1.104.834-.738 1.401-1.857 1.709-3.357V34.24a4.645 4.645 0 0 0-1.709-.834c-.639-.166-1.485-.25-2.543-.25zM253.845 32.845c-4.296 0-6.173 4.002-6.173 7.797 0 4.422 2.502 7.756 6.089 7.756 3.504 0 6.131-3.295 6.131-7.84 0-3.418-1.709-7.713-6.047-7.713zM125.365 40.039c-1.252 0-2.516.049-3.795.146-1.279.097-2.189.508-2.732 1.229-.541.724-.812 1.433-.812 2.127 0 .974.348 1.771 1.043 2.398.693.625 1.584.938 2.67.938.777 0 1.568-.104 2.375-.312s1.432-.474 1.877-.793a5.006 5.006 0 0 0 1.105-1.062c.293-.389.508-.766.646-1.127V40.12a44.062 44.062 0 0 0-1.188-.061c-.404-.012-.8-.02-1.189-.02zM160.373 40.039c-1.25 0-2.516.049-3.793.146-1.281.098-2.188.508-2.731 1.229-.543.723-.814 1.433-.814 2.127 0 .974.348 1.771 1.045 2.398.693.625 1.584.938 2.668.938.777 0 1.57-.104 2.377-.312.808-.208 1.433-.474 1.877-.793a5.067 5.067 0 0 0 1.104-1.062c.293-.389.508-.766.647-1.127V40.12a44.925 44.925 0 0 0-1.188-.061c-.407-.012-.801-.02-1.192-.02zM274.696 32.97c-3.795 0-6.047 3.336-6.047 7.756 0 4.086 2.043 7.465 5.963 7.465 2.461 0 4.711-1.67 5.379-4.379.125-.5.166-1.002.166-1.584v-3.504c0-.459-.041-1.084-.166-1.543-.541-2.293-2.543-4.211-5.295-4.211zM325.51 32.845c-4.295 0-6.172 4.002-6.172 7.797 0 4.422 2.502 7.756 6.088 7.756 3.504 0 6.131-3.295 6.131-7.84-.001-3.418-1.712-7.713-6.047-7.713zM304.267 32.926c-3.502 0-6.004 2.962-6.004 7.632 0 3.963 2.043 7.256 5.963 7.256 2.293 0 4.336-1.418 5.088-3.752.207-.625.291-1.334.291-1.961v-3.627c0-.625-.041-1.168-.209-1.627-.667-2.168-2.418-3.921-5.129-3.921z"/><path d="M110.246 48.504c-.932.25-2.022.375-3.272.375-1.392 0-2.679-.25-3.859-.75a8.467 8.467 0 0 1-3.086-2.252c-.875-1.002-1.562-2.254-2.062-3.756-.502-1.498-.752-3.25-.752-5.252 0-2.225.265-4.102.793-5.631.527-1.527 1.23-2.766 2.105-3.711.877-.945 1.869-1.627 2.982-2.045a9.564 9.564 0 0 1 3.379-.625c2.473 0 4.379.317 5.711.959l1.795-2.752c-1.392-.5-2.613-.842-3.67-1.021-1.058-.182-2.418-.271-4.088-.271-1.558 0-3.086.276-4.586.834-1.503.557-2.857 1.438-4.066 2.647-1.211 1.209-2.184 2.769-2.92 4.67-.736 1.906-1.105 4.222-1.105 6.945 0 2.611.334 4.871 1.002 6.775.666 1.903 1.57 3.469 2.711 4.69a10.744 10.744 0 0 0 4.002 2.732c1.529.596 3.171.896 4.923.896 1.444 0 2.807-.125 4.088-.375 1.276-.25 2.653-.944 4.129-2.086l-1.795-1.959c-.642.394-1.427.713-2.359.963zM240.061 47.729c-.933.25-2.021.377-3.273.377-1.393 0-2.678-.25-3.856-.75a8.408 8.408 0 0 1-3.086-2.254c-.877-1-1.564-2.252-2.064-3.754-.5-1.5-.75-3.252-.75-5.254 0-2.224.262-4.101.791-5.63.527-1.528 1.23-2.766 2.105-3.713.875-.942 1.868-1.627 2.981-2.043a9.52 9.52 0 0 1 3.379-.625c2.474 0 4.377.318 5.713.959l1.793-2.754c-1.391-.5-2.614-.84-3.67-1.02-1.057-.183-2.418-.271-4.086-.271a13.09 13.09 0 0 0-4.588.834c-1.502.558-2.856 1.438-4.068 2.648-1.207 1.209-2.182 2.766-2.918 4.67-.735 1.904-1.104 4.221-1.104 6.942 0 2.613.334 4.873 1.002 6.777s1.57 3.469 2.709 4.691c1.141 1.225 2.475 2.135 4.004 2.731s3.17.896 4.922.896c1.445 0 2.81-.125 4.088-.377 1.277-.25 2.654-.945 4.129-2.084l-1.795-1.959c-.641.394-1.426.713-2.358.963zM131.434 49.066a8.12 8.12 0 0 1-.564-2.982c0-1.418.043-2.918.125-4.504.086-1.584.125-3.211.125-4.879 0-.75-.076-1.5-.229-2.252a5.192 5.192 0 0 0-.918-2.063c-.457-.625-1.125-1.134-2-1.521-.877-.389-2.037-.584-3.482-.584-1.529 0-2.996.152-4.4.457-1.403.307-2.635.779-3.69 1.418l1.043 2.504c.389-.223.84-.424 1.354-.604s1.058-.334 1.627-.459a18.17 18.17 0 0 1 1.669-.291 11.88 11.88 0 0 1 1.521-.104c1.613 0 2.725.305 3.336.916.611.613.918 1.682.918 3.211 0 .668-.041 1.418-.125 2.252-.389-.055-.771-.082-1.146-.082h-1.148c-1.918 0-3.738.104-5.461.312-1.725.209-3.061.965-4.004 2.271-.945 1.31-1.418 2.574-1.418 3.797 0 .916.158 1.736.479 2.459a5.581 5.581 0 0 0 1.314 1.857c.555.516 1.217.91 1.979 1.188a7.248 7.248 0 0 0 2.482.418c.889 0 1.779-.1 2.668-.293.891-.192 1.598-.438 2.127-.729.527-.293.98-.627 1.355-1.002s.688-.756.938-1.146h.207c.584 1.945 1.307 2.918 2.168 2.918h2.961c-.831-.695-1.436-1.524-1.811-2.483zm-3.692-3.482a4.74 4.74 0 0 1-.646 1.127c-.291.39-.66.744-1.105 1.062-.445.319-1.07.584-1.877.793s-1.598.312-2.375.312c-1.086 0-1.977-.312-2.67-.938-.695-.627-1.043-1.426-1.043-2.398 0-.694.271-1.403.812-2.127.543-.723 1.453-1.133 2.732-1.229a49.638 49.638 0 0 1 3.795-.146 37.02 37.02 0 0 1 2.377.082v3.462zM145.488 40.746c-.738-.5-1.543-.901-2.42-1.209a35.374 35.374 0 0 1-2.418-.938c-.736-.32-1.355-.683-1.855-1.084-.5-.402-.752-.968-.752-1.689 0-1.029.287-1.752.855-2.17.57-.416 1.467-.625 2.688-.625 1.029 0 1.996.119 2.898.355.904.235 1.676.508 2.315.812l.791-2.752c-.75-.361-1.633-.676-2.646-.939-1.016-.264-2.273-.396-3.775-.396-2.028 0-3.614.467-4.754 1.397-1.141.933-1.711 2.396-1.711 4.398 0 1.225.25 2.197.752 2.92a6.27 6.27 0 0 0 1.855 1.773c.735.459 1.543.834 2.418 1.125.877.293 1.684.598 2.42.916.736.321 1.354.717 1.854 1.188.5.473.75 1.127.75 1.961 0 1.226-.389 2.07-1.168 2.543-.776.474-1.766.709-2.961.709a10.84 10.84 0 0 1-3.127-.459c-1.028-.305-1.862-.639-2.502-1l-1.002 2.836c.752.418 1.683.779 2.795 1.084 1.111.308 2.461.459 4.045.459 1.224 0 2.287-.159 3.191-.479.902-.318 1.66-.756 2.271-1.312a5.068 5.068 0 0 0 1.355-2.002 7.04 7.04 0 0 0 .438-2.502c0-1.252-.25-2.26-.75-3.024a6.608 6.608 0 0 0-1.85-1.896zM166.441 49.066a8.159 8.159 0 0 1-.562-2.982c0-1.418.041-2.918.125-4.504.084-1.584.125-3.211.125-4.879 0-.75-.075-1.5-.229-2.252-.154-.75-.459-1.438-.918-2.063s-1.125-1.134-2.002-1.521-2.037-.584-3.482-.584c-1.528 0-2.996.152-4.397.457-1.404.307-2.636.779-3.691 1.418l1.041 2.504a8.196 8.196 0 0 1 1.357-.604 13.76 13.76 0 0 1 1.625-.459 18.268 18.268 0 0 1 1.668-.291c.543-.07 1.051-.104 1.522-.104 1.611 0 2.726.305 3.336.916.611.613.918 1.682.918 3.211 0 .668-.043 1.418-.125 2.252a8.2 8.2 0 0 0-1.146-.082h-1.148c-1.918 0-3.739.104-5.463.312-1.725.209-3.059.965-4.004 2.271-.945 1.31-1.418 2.574-1.418 3.797 0 .916.16 1.736.48 2.459a5.534 5.534 0 0 0 1.312 1.857c.557.516 1.217.91 1.982 1.188.764.277 1.59.418 2.479.418s1.779-.1 2.67-.293c.89-.192 1.599-.438 2.127-.729a6.08 6.08 0 0 0 1.355-1.002c.373-.375.688-.756.938-1.146h.209c.584 1.945 1.308 2.918 2.168 2.918h2.961a6.12 6.12 0 0 1-1.813-2.483zm-3.689-3.482a4.782 4.782 0 0 1-.647 1.127c-.291.39-.66.744-1.104 1.062-.444.319-1.069.584-1.877.793-.807.209-1.6.312-2.377.312-1.084 0-1.975-.312-2.668-.938-.697-.627-1.045-1.426-1.045-2.398 0-.694.271-1.403.814-2.127.543-.723 1.45-1.133 2.731-1.229a49.08 49.08 0 0 1 3.793-.146 36.867 36.867 0 0 1 2.377.082v3.463h.003zM195.022 44.293V22.271h-3.336v8.674a12.8 12.8 0 0 0-1.938-.541c-.6-.111-1.412-.168-2.44-.168-2.945 0-5.261.926-6.943 2.772-1.684 1.851-2.521 4.556-2.521 8.111 0 3.728.674 6.465 2.021 8.217 1.35 1.752 3.412 2.627 6.193 2.627 1.418 0 2.653-.319 3.711-.959 1.057-.639 1.862-1.444 2.418-2.42h.168l.834 2.961h2.252a19.138 19.138 0 0 1-.375-3.397c-.03-1.152-.044-2.439-.044-3.855zm-3.335.291c-.308 1.5-.875 2.619-1.709 3.357-.834.736-1.959 1.104-3.377 1.104-.976 0-1.802-.2-2.482-.604s-1.229-.951-1.646-1.648c-.418-.692-.718-1.526-.896-2.5a17.29 17.29 0 0 1-.271-3.172c0-2.779.541-4.803 1.625-6.067 1.086-1.265 2.588-1.896 4.504-1.896 1.059 0 1.905.084 2.545.25a4.645 4.645 0 0 1 1.709.834v10.343h-.002zM213.132 33.095a7.408 7.408 0 0 0-2.854-2.212c-1.154-.514-2.51-.771-4.066-.771-2.944 0-5.205.938-6.776 2.816-1.57 1.877-2.355 4.579-2.355 8.11 0 1.642.181 3.133.541 4.482.361 1.349.918 2.502 1.67 3.461a7.395 7.395 0 0 0 2.855 2.211c1.153.514 2.51.771 4.065.771 2.947 0 5.205-.938 6.775-2.813 1.572-1.877 2.359-4.58 2.359-8.111 0-1.641-.183-3.135-.543-4.483-.365-1.349-.919-2.502-1.671-3.461zm-6.922 15.95c-1.028 0-1.903-.223-2.627-.666a5.248 5.248 0 0 1-1.752-1.754c-.444-.721-.77-1.567-.979-2.543a14.439 14.439 0 0 1-.312-3.043c0-5.365 1.892-8.035 5.67-8.008 1.029 0 1.904.215 2.629.646a5.072 5.072 0 0 1 1.75 1.729c.445.723.771 1.57.98 2.545.207.973.312 2 .312 3.086.001 5.367-1.89 8.037-5.671 8.008zM259.265 21.793h-4.045l-3.626 5.963h2.585z"/><path d="M253.929 30.092c-5.548 0-10.009 3.962-10.009 10.675 0 6.381 4.252 10.383 9.675 10.383 4.836 0 10.049-3.252 10.049-10.717 0-6.129-3.92-10.341-9.715-10.341zm-.168 18.304c-3.587 0-6.089-3.334-6.089-7.756 0-3.795 1.877-7.798 6.173-7.798 4.338 0 6.047 4.296 6.047 7.714 0 4.547-2.627 7.84-6.131 7.84zM283.786 21.084h-3.629v12.052h-.082c-.918-1.585-2.961-3.044-6.088-3.044-4.879 0-9.092 4.087-9.049 10.8 0 6.131 3.795 10.258 8.672 10.258 3.295 0 5.713-1.709 6.797-3.961h.127l.166 3.504h3.252a94.931 94.931 0 0 1-.166-5.213V21.084zm-3.629 21.144c0 .582-.041 1.084-.166 1.584-.668 2.709-2.918 4.379-5.379 4.379-3.92 0-5.963-3.379-5.963-7.465 0-4.42 2.252-7.756 6.047-7.756 2.752 0 4.754 1.918 5.295 4.211.125.459.166 1.084.166 1.543v3.504zM310.063 33.554h-.084c-.916-1.671-2.793-3.462-6.297-3.462-4.67 0-9.132 3.837-9.132 10.675 0 5.588 3.587 9.842 8.591 9.842 3.127 0 5.338-1.502 6.422-3.379h.082v2.211c0 5.128-2.752 7.087-6.504 7.087-2.502 0-4.588-.75-5.922-1.625l-.919 2.836c1.628 1.084 4.296 1.668 6.716 1.668 2.543 0 5.379-.627 7.381-2.418 1.918-1.795 2.877-4.588 2.877-9.257V36.013c0-2.418.041-4.087.166-5.505h-3.252l-.125 3.046zm-.459 8.547c0 .627-.084 1.336-.291 1.961-.752 2.334-2.795 3.752-5.088 3.752-3.92 0-5.963-3.293-5.963-7.256 0-4.67 2.502-7.632 6.004-7.632 2.711 0 4.463 1.753 5.129 3.921.168.459.209 1.002.209 1.627v3.627zM325.594 30.092c-5.547 0-10.008 3.962-10.008 10.675 0 6.381 4.252 10.383 9.674 10.383 4.836 0 10.049-3.252 10.049-10.717-.001-6.129-3.921-10.341-9.715-10.341zm-.168 18.304c-3.586 0-6.088-3.334-6.088-7.756 0-3.795 1.877-7.798 6.172-7.798 4.336 0 6.047 4.296 6.047 7.714-.001 4.547-2.628 7.84-6.131 7.84zM289.265 22.543c-1.375 0-2.293 1.043-2.293 2.293 0 1.252.875 2.252 2.209 2.252 1.461 0 2.336-1 2.336-2.252 0-1.291-.918-2.293-2.252-2.293zM287.429 30.508h3.67v20.185h-3.67z"/><g><path d="M95.471 63.461h1.848V76.08h6.047v1.533h-7.895V63.461zM111.599 64.596c0 .629-.44 1.133-1.177 1.133-.672 0-1.111-.504-1.111-1.133 0-.631.461-1.154 1.153-1.154.673-.001 1.135.503 1.135 1.154zm-2.058 13.017V67.451h1.849v10.162h-1.849zM119.369 67.451l1.994 5.689c.336.944.609 1.784.818 2.625h.062c.231-.841.524-1.681.86-2.625l1.975-5.689h1.933l-3.99 10.162h-1.765l-3.862-10.162h1.975zM132.955 70.621c0-1.197-.021-2.225-.084-3.17h1.617l.084 2.016h.062c.464-1.365 1.597-2.227 2.836-2.227.188 0 .336.021.504.043v1.742c-.188-.041-.378-.041-.63-.041-1.303 0-2.227.965-2.479 2.352a5.516 5.516 0 0 0-.062.859v5.418h-1.849l.001-6.992zM153.01 72.447c0 3.76-2.625 5.396-5.062 5.396-2.729 0-4.871-2.017-4.871-5.23 0-3.379 2.246-5.375 5.039-5.375 2.919.002 4.894 2.123 4.894 5.209zm-8.041.106c0 2.227 1.26 3.906 3.064 3.906 1.764 0 3.086-1.66 3.086-3.947 0-1.723-.86-3.885-3.044-3.885-2.163 0-3.106 2.016-3.106 3.926zM159.289 75.744c.567.336 1.533.715 2.457.715 1.322 0 1.953-.652 1.953-1.512 0-.883-.525-1.344-1.869-1.848-1.848-.672-2.709-1.66-2.709-2.877 0-1.64 1.344-2.982 3.507-2.982 1.028 0 1.933.273 2.479.631l-.441 1.344a3.927 3.927 0 0 0-2.078-.609c-1.092 0-1.68.631-1.68 1.388 0 .84.588 1.217 1.91 1.741 1.743.65 2.667 1.533 2.667 3.045 0 1.806-1.407 3.064-3.779 3.064-1.111 0-2.142-.293-2.854-.713l.437-1.387zM181.739 72.867c.041 2.5 1.617 3.527 3.484 3.527 1.323 0 2.143-.23 2.813-.523l.336 1.322c-.649.293-1.785.649-3.401.649-3.127 0-4.996-2.077-4.996-5.146 0-3.063 1.805-5.459 4.766-5.459 3.338 0 4.199 2.898 4.199 4.769 0 .377-.021.649-.062.859l-7.139.002zm5.416-1.322c.021-1.154-.482-2.98-2.561-2.98-1.892 0-2.688 1.699-2.834 2.98h5.395zM205.972 65.016h-4.304v-1.555h10.478v1.555h-4.326v12.598h-1.848V65.016zM217.395 72.867c.043 2.5 1.617 3.527 3.485 3.527 1.322 0 2.142-.23 2.812-.523l.336 1.322c-.65.293-1.783.649-3.4.649-3.129 0-4.998-2.077-4.998-5.146 0-3.063 1.808-5.459 4.769-5.459 3.338 0 4.199 2.898 4.199 4.769 0 .377-.021.649-.064.859l-7.139.002zm5.418-1.322c.021-1.154-.482-2.98-2.562-2.98-1.889 0-2.688 1.699-2.834 2.98h5.396zM238.331 77.256c-.481.23-1.553.588-2.918.588-3.063 0-5.061-2.078-5.061-5.186 0-3.129 2.143-5.418 5.459-5.418 1.092 0 2.059.273 2.562.547l-.42 1.406c-.44-.23-1.135-.482-2.143-.482-2.33 0-3.59 1.742-3.59 3.842 0 2.352 1.512 3.801 3.526 3.801a5.333 5.333 0 0 0 2.269-.481l.316 1.383zM244.696 70.201c0-1.07-.021-1.91-.084-2.75h1.639l.104 1.68h.043c.504-.945 1.68-1.891 3.358-1.891 1.406 0 3.591.84 3.591 4.326v6.047h-1.849v-5.857c0-1.639-.608-3.004-2.352-3.004-1.197 0-2.142.861-2.478 1.891-.084.23-.127.545-.127.861v6.109h-1.848l.003-7.412zM269.747 72.447c0 3.76-2.625 5.396-5.061 5.396-2.729 0-4.871-2.017-4.871-5.23 0-3.379 2.248-5.375 5.039-5.375 2.92.002 4.893 2.123 4.893 5.209zm-8.041.106c0 2.227 1.26 3.906 3.064 3.906 1.764 0 3.088-1.66 3.088-3.947 0-1.723-.861-3.885-3.045-3.885-2.162 0-3.107 2.016-3.107 3.926zM276.28 62.705h1.848v14.908h-1.848V62.705zM294.632 72.447c0 3.76-2.625 5.396-5.061 5.396-2.729 0-4.871-2.017-4.871-5.23 0-3.379 2.248-5.375 5.039-5.375 2.92.002 4.893 2.123 4.893 5.209zm-8.041.106c0 2.227 1.261 3.906 3.064 3.906 1.764 0 3.088-1.66 3.088-3.947 0-1.723-.861-3.885-3.045-3.885-2.162 0-3.107 2.016-3.107 3.926zM309.858 76.123c0 2.352-.483 3.758-1.449 4.66-1.008.902-2.436 1.219-3.717 1.219-1.217 0-2.562-.295-3.381-.84l.463-1.428c.672.438 1.721.818 2.979.818 1.892 0 3.275-.986 3.275-3.57v-1.111h-.041c-.547.943-1.658 1.699-3.234 1.699-2.52 0-4.323-2.141-4.323-4.955 0-3.443 2.246-5.375 4.598-5.375 1.765 0 2.709.904 3.17 1.744h.043l.062-1.533h1.639c-.063.713-.084 1.553-.084 2.771v5.901zm-1.847-4.662c0-.314-.021-.588-.105-.818-.336-1.092-1.219-1.975-2.582-1.975-1.764 0-3.023 1.492-3.023 3.844 0 1.994 1.027 3.652 3.003 3.652 1.153 0 2.184-.713 2.561-1.889.105-.316.148-.672.148-.988l-.002-1.826zM319.036 64.596c0 .629-.44 1.133-1.176 1.133-.672 0-1.113-.504-1.113-1.133 0-.631.462-1.154 1.154-1.154.672-.001 1.135.503 1.135 1.154zm-2.058 13.017V67.451h1.848v10.162h-1.848zM333.231 75.178c0 .881.041 1.742.146 2.436h-1.658l-.148-1.28h-.062c-.566.799-1.658 1.513-3.107 1.513-2.057 0-3.106-1.449-3.106-2.918 0-2.457 2.184-3.802 6.108-3.779v-.211c0-.818-.229-2.353-2.309-2.33-.967 0-1.953.272-2.666.756l-.42-1.238c.84-.525 2.078-.883 3.358-.883 3.107 0 3.863 2.121 3.863 4.137v3.797h.001zm-1.785-2.75c-2.016-.043-4.305.314-4.305 2.287 0 1.219.799 1.764 1.723 1.764 1.345 0 2.203-.84 2.498-1.699.062-.211.084-.42.084-.588v-1.764z"/></g></g></svg>