<svg version="1" xmlns="http://www.w3.org/2000/svg" viewBox="0 0 50 50"><path fill="#E56060" d="M12.573 18.512h2.422c-.842 0-1.58.737-1.58 1.58l1.474 14.112 20.85-7.582V26.2l.633-6.108c0-.842-.737-1.58-1.58-1.58h2.422c1.474 0 2.527-1.158 1.896-2.212l-1.895-2.95c-.316-.526-1.053-.84-1.896-.84H14.47c-.843 0-1.58.315-1.897.84l-1.895 2.95c-.632 1.053.316 2.212 1.895 2.212z"/><path fill="#FF6B6B" d="M12.573 18.512h2.422c-.842 0-1.58.737-1.58 1.58l.42 4.212 24.855-9.057-1.264-1.896c-.316-.526-1.053-.84-1.896-.84H14.47c-.843 0-1.58.315-1.897.84l-1.895 2.95c-.632 1.053.316 2.212 1.895 2.212z"/><path d="M25.785 7.377c-.382.306-.46.765-.153 1.147.153.23.382.306.688.306.153 0 .382-.076.46-.153.076-.077 1.834-1.377 1.834-4.282 0-2.83-1.76-4.206-1.835-4.206-.383-.307-.842-.23-1.148.152s-.23.918.153 1.147c.076 0 1.147.917 1.147 2.905.077 2.064-1.07 2.905-1.147 2.982zm14.38 8.397l-1.896-2.95c-.528-.84-1.58-1.368-2.74-1.368H14.47c-1.16 0-2.213.527-2.74 1.37l-1.895 2.948c-.42.632-.42 1.474-.105 2.212.527.948 1.58 1.474 2.843 1.474h.105c0 .21-.105.42-.105.527l2.843 27.592c0 1.368.948 2.42 2.106 2.42h14.954c1.158 0 2.106-1.052 2.106-2.42l1.053-10.11c.105-.528-.316-.95-.842-1.054-.527-.105-.948.316-1.053.842l-1.053 10.11v.105c0 .316-.105.527-.21.527H17.522c-.105 0-.21-.21-.21-.632l-.95-9.162H25c.527 0 .948-.42.948-.948A.944.944 0 0 0 25 36.31h-8.74l-.95-9.373h20.537c.527.105.948-.316 1.053-.842l.632-6.108v-.105c0-.21 0-.42-.105-.527h.105c1.264 0 2.317-.527 2.738-1.474.316-.632.316-1.37-.105-2.106zm-4.634 4.212l-.526 5.16h-20.01l-.526-5.16c0-.316.316-.527.527-.527h20.01c.316 0 .526.21.526.526zm3.055-2.95c-.105.212-.527.422-1.053.422H12.68c-.528 0-.95-.21-1.054-.42v-.212l1.896-2.95c.105-.21.527-.42 1.053-.42h20.957c.527 0 .948.21 1.053.42l1.896 2.95a.33.33 0 0 1 .105.21z" fill="#444"/></svg>