<svg version="1" xmlns="http://www.w3.org/2000/svg" viewBox="0 0 50 50"><path fill="#AFE55D" d="M5.362 36.788l4.054 2.341 35.679-12.986V13.848a.911.911 0 0 0-.456-.79L25.456 1.983a.913.913 0 0 0-.913 0L5.362 13.058a.913.913 0 0 0-.456.79v22.149a.91.91 0 0 0 .456.791z"/><path fill="#C3FF68" d="M33.267 6.493l-7.811-4.51a.913.913 0 0 0-.913 0L5.362 13.058a.913.913 0 0 0-.456.79v2.968L33.267 6.493z"/><path fill="#444" d="M45.209 12.069L26.027.994a2.063 2.063 0 0 0-2.054 0L4.791 12.068a2.061 2.061 0 0 0-1.028 1.78v22.15c0 .731.393 1.413 1.027 1.78l19.184 11.076a2.061 2.061 0 0 0 2.053-.001l11.6-6.698a1.143 1.143 0 0 0-1.142-1.978l-10.801 6.236V38.2l3.677-2.122c.025-.015.041-.039.063-.056a.72.72 0 0 0 .106-.093c.029-.033.05-.069.072-.106a.612.612 0 0 0 .057-.118.619.619 0 0 0 .027-.136c.004-.029.017-.054.017-.084v-8.19l2.648-1.529v3.107c0 .015.007.027.008.041.003.045.015.088.027.132.012.045.023.089.044.13.006.013.006.027.013.039.01.017.029.024.04.04a.662.662 0 0 0 .176.174c.024.017.045.035.071.048a.665.665 0 0 0 .307.081l.003-.001a.674.674 0 0 0 .306-.082c.01-.005.022-.003.033-.009l7.011-4.047v3.106c0 .015.007.027.008.041.003.045.015.088.027.132.012.045.023.089.044.13.006.013.006.027.013.039.01.017.029.024.04.04a.662.662 0 0 0 .176.174c.024.017.045.035.071.048a.665.665 0 0 0 .307.081l.003-.001a.674.674 0 0 0 .306-.082c.01-.005.022-.003.033-.009l3.982-2.299c.479-.136.836-.558.836-1.08V13.848a2.06 2.06 0 0 0-1.027-1.779zM25 3.038l18.268 10.547L25 24.132 6.732 13.585 25 3.038zm-3.676 27.559c-.012-.007-.026-.007-.039-.013-.041-.021-.085-.032-.13-.044-.044-.012-.087-.024-.132-.027-.014-.001-.026-.008-.041-.008-.03 0-.055.013-.084.017a.697.697 0 0 0-.136.027.703.703 0 0 0-.117.057.638.638 0 0 0-.106.072.63.63 0 0 0-.093.106c-.017.023-.041.038-.056.063-.007.012-.007.026-.013.039-.021.041-.032.085-.044.13-.012.045-.024.088-.027.133-.001.014-.008.026-.008.041v3.107l-2.649-1.529v-8.19c0-.03-.013-.055-.017-.083a.65.65 0 0 0-.028-.138c-.014-.042-.035-.078-.056-.116a.64.64 0 0 0-.073-.108.666.666 0 0 0-.105-.093c-.023-.017-.038-.041-.064-.056l-4.019-2.32c-.012-.007-.027-.007-.039-.013-.04-.02-.083-.031-.127-.043-.046-.012-.09-.025-.137-.028-.014-.001-.025-.008-.039-.008-.028 0-.052.013-.08.016a.698.698 0 0 0-.143.029.646.646 0 0 0-.112.055.623.623 0 0 0-.11.074c-.036.031-.063.067-.092.104-.018.023-.042.038-.056.064-.007.012-.007.026-.013.039-.021.041-.032.085-.044.13-.012.045-.024.087-.027.133-.001.014-.008.026-.008.041v3.107l-2.991-1.727c-.012-.007-.026-.007-.039-.013-.041-.021-.084-.031-.129-.044-.045-.012-.088-.024-.134-.027-.014-.001-.026-.008-.04-.008-.029 0-.053.013-.081.016a.665.665 0 0 0-.141.028c-.041.014-.076.034-.113.055a.623.623 0 0 0-.11.074c-.036.031-.063.067-.092.104-.018.023-.042.038-.056.064-.007.012-.007.026-.013.039-.021.041-.032.085-.044.13-.012.045-.024.087-.027.133-.003.016-.01.028-.01.042v3.106L6.048 26.07v-11.3l18.268 10.547v7.005l-2.992-1.725zM6.047 35.866v-8.213l2.535 1.463c.01.006.022.003.033.009a.674.674 0 0 0 .308.083h.001a.668.668 0 0 0 .307-.081c.026-.013.046-.031.071-.048a.677.677 0 0 0 .176-.174c.011-.016.03-.022.04-.039.007-.012.007-.026.013-.039.021-.041.032-.085.044-.13.012-.045.024-.088.027-.133.001-.014.008-.026.008-.041v-3.106l2.991 1.727c.01.006.022.003.033.009a.674.674 0 0 0 .308.083h.001a.668.668 0 0 0 .307-.081c.026-.013.046-.031.071-.048a.677.677 0 0 0 .176-.174c.011-.016.03-.022.04-.039.007-.012.007-.026.013-.039.021-.041.032-.085.044-.13.012-.045.024-.088.027-.133.001-.014.008-.026.008-.041v-3.107l2.649 1.529v8.19c0 .03.013.055.017.083a.641.641 0 0 0 .028.137c.014.042.035.078.057.116a.646.646 0 0 0 .072.107.666.666 0 0 0 .105.093c.023.017.038.041.063.056l4.019 2.32c.01.006.022.003.033.009a.674.674 0 0 0 .308.083h.001a.668.668 0 0 0 .307-.081c.026-.013.046-.031.071-.048a.677.677 0 0 0 .176-.174c.011-.016.03-.022.04-.039.007-.012.007-.026.013-.039.021-.041.032-.085.044-.13.012-.045.024-.088.027-.133.001-.014.008-.026.008-.041v-3.107l2.649 1.529v12.507L6.047 35.866zm19.638-10.548l18.268-10.547v10.966c0 .106.033.202.06.299l-2.252 1.3V24.23c0-.015-.007-.027-.008-.041-.003-.045-.015-.088-.027-.132-.012-.045-.023-.089-.044-.13-.006-.013-.006-.027-.013-.039-.015-.026-.039-.041-.056-.064a.652.652 0 0 0-.092-.104.623.623 0 0 0-.11-.074.613.613 0 0 0-.112-.055.643.643 0 0 0-.145-.029c-.027-.003-.051-.016-.079-.016-.013 0-.025.007-.038.008a.676.676 0 0 0-.138.028c-.044.012-.087.023-.127.043-.013.006-.027.006-.039.013l-7.011 4.047v-3.107c0-.015-.007-.027-.008-.041-.003-.045-.015-.088-.027-.132-.012-.045-.023-.089-.044-.13-.006-.013-.006-.027-.013-.039-.015-.026-.039-.041-.057-.065-.028-.037-.055-.073-.091-.103a.644.644 0 0 0-.112-.075.66.66 0 0 0-.11-.054.698.698 0 0 0-.143-.029c-.028-.003-.052-.016-.08-.016-.014 0-.025.007-.039.008-.046.003-.09.015-.135.027-.045.012-.089.023-.129.044-.013.006-.027.006-.039.013l-4.018 2.32c-.025.015-.041.039-.063.056a.72.72 0 0 0-.106.093c-.029.033-.05.069-.072.106a.612.612 0 0 0-.057.118.619.619 0 0 0-.027.136c-.004.029-.017.054-.017.084v8.19l-2.649 1.529v-11.3z"/></svg>